<mxfile host="app.diagrams.net" modified="2023-02-15T00:41:11.816Z" agent="5.0 (Windows NT 10.0; Win64; x64) AppleWebKit/537.36 (KHTML, like Gecko) Chrome/108.0.0.0 Safari/537.36 OPR/94.0.0.0" etag="XshB1r8TZ5wbbeZBrJUo" version="20.8.20" type="github" pages="4">
  <diagram name="CasosUso" id="oI0zcblD2vLM9tzDN-FS">
    <mxGraphModel dx="753" dy="471" grid="1" gridSize="10" guides="1" tooltips="1" connect="1" arrows="1" fold="1" page="1" pageScale="1" pageWidth="827" pageHeight="1169" math="0" shadow="0">
      <root>
        <mxCell id="0" />
        <mxCell id="1" parent="0" />
        <mxCell id="5IkLuFJpY8_xRAn4Nj8V-5" style="edgeStyle=orthogonalEdgeStyle;rounded=0;orthogonalLoop=1;jettySize=auto;html=1;entryX=0;entryY=0.5;entryDx=0;entryDy=0;" edge="1" parent="1" source="oaAsL4D27_Mjlr-QGw2--1" target="5IkLuFJpY8_xRAn4Nj8V-3">
          <mxGeometry relative="1" as="geometry">
            <mxPoint x="260" y="310" as="sourcePoint" />
          </mxGeometry>
        </mxCell>
        <mxCell id="5IkLuFJpY8_xRAn4Nj8V-14" style="edgeStyle=orthogonalEdgeStyle;rounded=0;orthogonalLoop=1;jettySize=auto;html=1;" edge="1" parent="1" source="oaAsL4D27_Mjlr-QGw2--1" target="5IkLuFJpY8_xRAn4Nj8V-6">
          <mxGeometry relative="1" as="geometry">
            <mxPoint x="250" y="330" as="sourcePoint" />
          </mxGeometry>
        </mxCell>
        <mxCell id="oaAsL4D27_Mjlr-QGw2--1" value="Médico" style="shape=umlActor;verticalLabelPosition=bottom;verticalAlign=top;html=1;outlineConnect=0;" parent="1" vertex="1">
          <mxGeometry x="200" y="280" width="30" height="60" as="geometry" />
        </mxCell>
        <mxCell id="oaAsL4D27_Mjlr-QGw2--2" value="Empleado/Paciente" style="shape=umlActor;verticalLabelPosition=bottom;verticalAlign=top;html=1;outlineConnect=0;" parent="1" vertex="1">
          <mxGeometry x="200" y="430" width="30" height="60" as="geometry" />
        </mxCell>
        <mxCell id="oaAsL4D27_Mjlr-QGw2--3" value="Solicitar cita" style="ellipse;whiteSpace=wrap;html=1;" parent="1" vertex="1">
          <mxGeometry x="390" y="420" width="120" height="80" as="geometry" />
        </mxCell>
        <mxCell id="oaAsL4D27_Mjlr-QGw2--4" value="" style="endArrow=classic;html=1;rounded=0;entryX=0;entryY=0.5;entryDx=0;entryDy=0;" parent="1" source="oaAsL4D27_Mjlr-QGw2--2" target="oaAsL4D27_Mjlr-QGw2--3" edge="1">
          <mxGeometry width="50" height="50" relative="1" as="geometry">
            <mxPoint x="510" y="330" as="sourcePoint" />
            <mxPoint x="490" y="310" as="targetPoint" />
          </mxGeometry>
        </mxCell>
        <mxCell id="5IkLuFJpY8_xRAn4Nj8V-2" style="edgeStyle=orthogonalEdgeStyle;rounded=0;orthogonalLoop=1;jettySize=auto;html=1;exitX=0;exitY=0.5;exitDx=0;exitDy=0;entryX=1;entryY=0.5;entryDx=0;entryDy=0;" edge="1" parent="1" source="5IkLuFJpY8_xRAn4Nj8V-1" target="oaAsL4D27_Mjlr-QGw2--3">
          <mxGeometry relative="1" as="geometry">
            <Array as="points">
              <mxPoint x="560" y="340" />
              <mxPoint x="560" y="460" />
            </Array>
          </mxGeometry>
        </mxCell>
        <mxCell id="5IkLuFJpY8_xRAn4Nj8V-7" style="edgeStyle=orthogonalEdgeStyle;rounded=0;orthogonalLoop=1;jettySize=auto;html=1;exitX=0;exitY=0.5;exitDx=0;exitDy=0;entryX=1;entryY=0.5;entryDx=0;entryDy=0;" edge="1" parent="1" source="5IkLuFJpY8_xRAn4Nj8V-1" target="5IkLuFJpY8_xRAn4Nj8V-3">
          <mxGeometry relative="1" as="geometry" />
        </mxCell>
        <mxCell id="5IkLuFJpY8_xRAn4Nj8V-8" style="edgeStyle=orthogonalEdgeStyle;rounded=0;orthogonalLoop=1;jettySize=auto;html=1;exitX=0;exitY=0.5;exitDx=0;exitDy=0;" edge="1" parent="1" source="5IkLuFJpY8_xRAn4Nj8V-1" target="5IkLuFJpY8_xRAn4Nj8V-6">
          <mxGeometry relative="1" as="geometry" />
        </mxCell>
        <mxCell id="5IkLuFJpY8_xRAn4Nj8V-1" value="Validar Usuario" style="ellipse;whiteSpace=wrap;html=1;" vertex="1" parent="1">
          <mxGeometry x="600" y="300" width="120" height="80" as="geometry" />
        </mxCell>
        <mxCell id="5IkLuFJpY8_xRAn4Nj8V-9" style="edgeStyle=orthogonalEdgeStyle;rounded=0;orthogonalLoop=1;jettySize=auto;html=1;exitX=0.5;exitY=1;exitDx=0;exitDy=0;entryX=0.5;entryY=0;entryDx=0;entryDy=0;" edge="1" parent="1" source="5IkLuFJpY8_xRAn4Nj8V-3" target="5IkLuFJpY8_xRAn4Nj8V-6">
          <mxGeometry relative="1" as="geometry" />
        </mxCell>
        <mxCell id="5IkLuFJpY8_xRAn4Nj8V-3" value="Consultar Citas" style="ellipse;whiteSpace=wrap;html=1;" vertex="1" parent="1">
          <mxGeometry x="390" y="130" width="120" height="80" as="geometry" />
        </mxCell>
        <mxCell id="5IkLuFJpY8_xRAn4Nj8V-12" style="edgeStyle=orthogonalEdgeStyle;rounded=0;orthogonalLoop=1;jettySize=auto;html=1;exitX=0.5;exitY=1;exitDx=0;exitDy=0;entryX=0.5;entryY=0;entryDx=0;entryDy=0;" edge="1" parent="1" source="5IkLuFJpY8_xRAn4Nj8V-6" target="5IkLuFJpY8_xRAn4Nj8V-11">
          <mxGeometry relative="1" as="geometry" />
        </mxCell>
        <mxCell id="5IkLuFJpY8_xRAn4Nj8V-6" value="Atender Cita" style="ellipse;whiteSpace=wrap;html=1;" vertex="1" parent="1">
          <mxGeometry x="390" y="230" width="120" height="80" as="geometry" />
        </mxCell>
        <mxCell id="5IkLuFJpY8_xRAn4Nj8V-11" value="Generar Reporte" style="ellipse;whiteSpace=wrap;html=1;" vertex="1" parent="1">
          <mxGeometry x="390" y="330" width="120" height="80" as="geometry" />
        </mxCell>
        <mxCell id="5IkLuFJpY8_xRAn4Nj8V-13" value="&amp;lt;&amp;lt;include&amp;gt;&amp;gt;" style="text;html=1;align=center;verticalAlign=middle;resizable=0;points=[];autosize=1;strokeColor=none;fillColor=none;" vertex="1" parent="1">
          <mxGeometry x="550" y="270" width="90" height="30" as="geometry" />
        </mxCell>
      </root>
    </mxGraphModel>
  </diagram>
  <diagram id="XqRJrCncq-GjlaDZzdW8" name="Clase">
    <mxGraphModel dx="753" dy="471" grid="1" gridSize="10" guides="1" tooltips="1" connect="1" arrows="1" fold="1" page="1" pageScale="1" pageWidth="827" pageHeight="1169" math="0" shadow="0">
      <root>
        <mxCell id="0" />
        <mxCell id="1" parent="0" />
        <mxCell id="9M5RaAoIDpLF31Z5K_zt-23" style="edgeStyle=orthogonalEdgeStyle;rounded=0;orthogonalLoop=1;jettySize=auto;html=1;entryX=0.5;entryY=0;entryDx=0;entryDy=0;" edge="1" parent="1" source="9M5RaAoIDpLF31Z5K_zt-6" target="9M5RaAoIDpLF31Z5K_zt-18">
          <mxGeometry relative="1" as="geometry" />
        </mxCell>
        <mxCell id="9M5RaAoIDpLF31Z5K_zt-24" style="edgeStyle=orthogonalEdgeStyle;rounded=0;orthogonalLoop=1;jettySize=auto;html=1;entryX=0.5;entryY=0;entryDx=0;entryDy=0;" edge="1" parent="1" source="9M5RaAoIDpLF31Z5K_zt-6" target="9M5RaAoIDpLF31Z5K_zt-14">
          <mxGeometry relative="1" as="geometry" />
        </mxCell>
        <mxCell id="9M5RaAoIDpLF31Z5K_zt-6" value="Paciente" style="swimlane;fontStyle=1;align=center;verticalAlign=top;childLayout=stackLayout;horizontal=1;startSize=26;horizontalStack=0;resizeParent=1;resizeParentMax=0;resizeLast=0;collapsible=1;marginBottom=0;" vertex="1" parent="1">
          <mxGeometry x="230" y="93" width="160" height="114" as="geometry">
            <mxRectangle x="310" y="200" width="100" height="30" as="alternateBounds" />
          </mxGeometry>
        </mxCell>
        <mxCell id="9M5RaAoIDpLF31Z5K_zt-7" value="Nombre&#xa;Edad&#xa;Dirección&#xa;" style="text;strokeColor=none;fillColor=none;align=left;verticalAlign=top;spacingLeft=4;spacingRight=4;overflow=hidden;rotatable=0;points=[[0,0.5],[1,0.5]];portConstraint=eastwest;" vertex="1" parent="9M5RaAoIDpLF31Z5K_zt-6">
          <mxGeometry y="26" width="160" height="54" as="geometry" />
        </mxCell>
        <mxCell id="9M5RaAoIDpLF31Z5K_zt-8" value="" style="line;strokeWidth=1;fillColor=none;align=left;verticalAlign=middle;spacingTop=-1;spacingLeft=3;spacingRight=3;rotatable=0;labelPosition=right;points=[];portConstraint=eastwest;strokeColor=inherit;" vertex="1" parent="9M5RaAoIDpLF31Z5K_zt-6">
          <mxGeometry y="80" width="160" height="8" as="geometry" />
        </mxCell>
        <mxCell id="9M5RaAoIDpLF31Z5K_zt-9" value="Solicitar Cita" style="text;strokeColor=none;fillColor=none;align=left;verticalAlign=top;spacingLeft=4;spacingRight=4;overflow=hidden;rotatable=0;points=[[0,0.5],[1,0.5]];portConstraint=eastwest;" vertex="1" parent="9M5RaAoIDpLF31Z5K_zt-6">
          <mxGeometry y="88" width="160" height="26" as="geometry" />
        </mxCell>
        <mxCell id="9M5RaAoIDpLF31Z5K_zt-22" style="edgeStyle=orthogonalEdgeStyle;rounded=0;orthogonalLoop=1;jettySize=auto;html=1;entryX=0.5;entryY=0;entryDx=0;entryDy=0;" edge="1" parent="1" source="9M5RaAoIDpLF31Z5K_zt-10" target="9M5RaAoIDpLF31Z5K_zt-18">
          <mxGeometry relative="1" as="geometry" />
        </mxCell>
        <mxCell id="9M5RaAoIDpLF31Z5K_zt-10" value="Médico" style="swimlane;fontStyle=1;align=center;verticalAlign=top;childLayout=stackLayout;horizontal=1;startSize=26;horizontalStack=0;resizeParent=1;resizeParentMax=0;resizeLast=0;collapsible=1;marginBottom=0;" vertex="1" parent="1">
          <mxGeometry x="530" y="80" width="160" height="140" as="geometry" />
        </mxCell>
        <mxCell id="9M5RaAoIDpLF31Z5K_zt-11" value="Nombre&#xa;Especialidad&#xa;Contacto" style="text;strokeColor=none;fillColor=none;align=left;verticalAlign=top;spacingLeft=4;spacingRight=4;overflow=hidden;rotatable=0;points=[[0,0.5],[1,0.5]];portConstraint=eastwest;" vertex="1" parent="9M5RaAoIDpLF31Z5K_zt-10">
          <mxGeometry y="26" width="160" height="64" as="geometry" />
        </mxCell>
        <mxCell id="9M5RaAoIDpLF31Z5K_zt-12" value="" style="line;strokeWidth=1;fillColor=none;align=left;verticalAlign=middle;spacingTop=-1;spacingLeft=3;spacingRight=3;rotatable=0;labelPosition=right;points=[];portConstraint=eastwest;strokeColor=inherit;" vertex="1" parent="9M5RaAoIDpLF31Z5K_zt-10">
          <mxGeometry y="90" width="160" height="8" as="geometry" />
        </mxCell>
        <mxCell id="9M5RaAoIDpLF31Z5K_zt-13" value="Consultar Citas&#xa;Atender Citas" style="text;strokeColor=none;fillColor=none;align=left;verticalAlign=top;spacingLeft=4;spacingRight=4;overflow=hidden;rotatable=0;points=[[0,0.5],[1,0.5]];portConstraint=eastwest;" vertex="1" parent="9M5RaAoIDpLF31Z5K_zt-10">
          <mxGeometry y="98" width="160" height="42" as="geometry" />
        </mxCell>
        <mxCell id="9M5RaAoIDpLF31Z5K_zt-14" value="Historial Clínico" style="swimlane;fontStyle=1;align=center;verticalAlign=top;childLayout=stackLayout;horizontal=1;startSize=26;horizontalStack=0;resizeParent=1;resizeParentMax=0;resizeLast=0;collapsible=1;marginBottom=0;" vertex="1" parent="1">
          <mxGeometry x="160" y="288" width="160" height="144" as="geometry" />
        </mxCell>
        <mxCell id="9M5RaAoIDpLF31Z5K_zt-15" value="Paciente&#xa;Antecedentes médicos&#xa;Resultados exámenes&#xa;Tratamientos recibidos" style="text;strokeColor=none;fillColor=none;align=left;verticalAlign=top;spacingLeft=4;spacingRight=4;overflow=hidden;rotatable=0;points=[[0,0.5],[1,0.5]];portConstraint=eastwest;" vertex="1" parent="9M5RaAoIDpLF31Z5K_zt-14">
          <mxGeometry y="26" width="160" height="84" as="geometry" />
        </mxCell>
        <mxCell id="9M5RaAoIDpLF31Z5K_zt-16" value="" style="line;strokeWidth=1;fillColor=none;align=left;verticalAlign=middle;spacingTop=-1;spacingLeft=3;spacingRight=3;rotatable=0;labelPosition=right;points=[];portConstraint=eastwest;strokeColor=inherit;" vertex="1" parent="9M5RaAoIDpLF31Z5K_zt-14">
          <mxGeometry y="110" width="160" height="8" as="geometry" />
        </mxCell>
        <mxCell id="9M5RaAoIDpLF31Z5K_zt-17" value="Buscar paciente&#xa;" style="text;strokeColor=none;fillColor=none;align=left;verticalAlign=top;spacingLeft=4;spacingRight=4;overflow=hidden;rotatable=0;points=[[0,0.5],[1,0.5]];portConstraint=eastwest;" vertex="1" parent="9M5RaAoIDpLF31Z5K_zt-14">
          <mxGeometry y="118" width="160" height="26" as="geometry" />
        </mxCell>
        <mxCell id="9M5RaAoIDpLF31Z5K_zt-18" value="Cita" style="swimlane;fontStyle=1;align=center;verticalAlign=top;childLayout=stackLayout;horizontal=1;startSize=26;horizontalStack=0;resizeParent=1;resizeParentMax=0;resizeLast=0;collapsible=1;marginBottom=0;" vertex="1" parent="1">
          <mxGeometry x="390" y="290" width="160" height="140" as="geometry" />
        </mxCell>
        <mxCell id="9M5RaAoIDpLF31Z5K_zt-19" value="Paciente&#xa;Fecha&#xa;Médico&#xa;Motivo" style="text;strokeColor=none;fillColor=none;align=left;verticalAlign=top;spacingLeft=4;spacingRight=4;overflow=hidden;rotatable=0;points=[[0,0.5],[1,0.5]];portConstraint=eastwest;" vertex="1" parent="9M5RaAoIDpLF31Z5K_zt-18">
          <mxGeometry y="26" width="160" height="64" as="geometry" />
        </mxCell>
        <mxCell id="9M5RaAoIDpLF31Z5K_zt-20" value="" style="line;strokeWidth=1;fillColor=none;align=left;verticalAlign=middle;spacingTop=-1;spacingLeft=3;spacingRight=3;rotatable=0;labelPosition=right;points=[];portConstraint=eastwest;strokeColor=inherit;" vertex="1" parent="9M5RaAoIDpLF31Z5K_zt-18">
          <mxGeometry y="90" width="160" height="8" as="geometry" />
        </mxCell>
        <mxCell id="9M5RaAoIDpLF31Z5K_zt-21" value="Realizar&#xa;Generar Resultado" style="text;strokeColor=none;fillColor=none;align=left;verticalAlign=top;spacingLeft=4;spacingRight=4;overflow=hidden;rotatable=0;points=[[0,0.5],[1,0.5]];portConstraint=eastwest;" vertex="1" parent="9M5RaAoIDpLF31Z5K_zt-18">
          <mxGeometry y="98" width="160" height="42" as="geometry" />
        </mxCell>
      </root>
    </mxGraphModel>
  </diagram>
  <diagram id="Oz5uxYZ2jUDLKSkr-OMg" name="Secuencia">
    <mxGraphModel dx="753" dy="471" grid="1" gridSize="10" guides="1" tooltips="1" connect="1" arrows="1" fold="1" page="1" pageScale="1" pageWidth="827" pageHeight="1169" math="0" shadow="0">
      <root>
        <mxCell id="0" />
        <mxCell id="1" parent="0" />
      </root>
    </mxGraphModel>
  </diagram>
  <diagram id="GLQSBOTR5oHm-Lj6X5NR" name="Actividades">
    <mxGraphModel dx="753" dy="471" grid="1" gridSize="10" guides="1" tooltips="1" connect="1" arrows="1" fold="1" page="1" pageScale="1" pageWidth="827" pageHeight="1169" math="0" shadow="0">
      <root>
        <mxCell id="0" />
        <mxCell id="1" parent="0" />
      </root>
    </mxGraphModel>
  </diagram>
</mxfile>
